<svg xmlns="http://www.w3.org/2000/svg" viewBox="0 0 512 512" style="height: 512px; width: 512px;"><defs><filter id="shadow-1" height="300%" width="300%" x="-100%" y="-100%"><feFlood flood-color="rgba(221, 180, 69, 1)" result="flood"></feFlood><feComposite in="flood" in2="SourceGraphic" operator="atop" result="composite"></feComposite><feGaussianBlur in="composite" stdDeviation="15" result="blur"></feGaussianBlur><feOffset dx="0" dy="0" result="offset"></feOffset><feComposite in="SourceGraphic" in2="offset" operator="over"></feComposite></filter></defs><path d="M0 0h512v512H0z" fill="#000000" fill-opacity="0.01"></path><g class="" transform="translate(1,-1)" style=""><path d="M159.4 26.23c-51.4.6-79.6 56.3-79.3 86.97 1.5 47.3 34.2 79.4 74.8 114.8 35.4 30.8 76.1 63.2 100.9 110 .1-.1.1-.2.2-.3.1.1.1.2.2.3 24.8-46.8 65.5-79.2 100.9-110 40.6-35.4 73.3-67.5 74.8-114.8.3-30.67-27.9-86.37-79.3-86.97-38-.5-82.6 25.7-96.6 67.7-14-42-58.6-68.2-96.6-67.7zM23 375v114h466V375H23zm18 18h430v78H334v-60H41v-18z" fill="#d4af37" fill-opacity="1" transform="translate(435.2, 435.2) scale(-0.7, -0.7) rotate(180, 256, 256) skewX(0) skewY(0)" filter="url(#shadow-1)"></path></g></svg>