<svg xmlns="http://www.w3.org/2000/svg" viewBox="0 0 512 512" style="height: 512px; width: 512px;"><defs><filter id="shadow-1" height="300%" width="300%" x="-100%" y="-100%"><feFlood flood-color="rgba(221, 180, 69, 1)" result="flood"></feFlood><feComposite in="flood" in2="SourceGraphic" operator="atop" result="composite"></feComposite><feGaussianBlur in="composite" stdDeviation="15" result="blur"></feGaussianBlur><feOffset dx="0" dy="0" result="offset"></feOffset><feComposite in="SourceGraphic" in2="offset" operator="over"></feComposite></filter></defs><path d="M0 0h512v512H0z" fill="#000000" fill-opacity="0.01"></path><g class="" transform="translate(1,-1)" style=""><path d="M459.15 269.75a133.197 133.197 0 0 1-55.862 179.975l-42.782 22.541-10.52 5.533a71.277 71.277 0 0 1-62.966 1.685l-167.077-71.38 15.733-46.676 99.363 19.194-51.458-97.78-82.843-157.411 40.357-21.232 82.844 157.457 19.934-10.485-36.521-69.445 40.335-21.22 36.52 69.445 19.935-10.485-28.2-53.598 40.358-21.232 28.2 53.598 19.945-10.576-19.354-36.886 40.346-21.174 19.354 36.885 54.348 103.301zM73.268 146.674a60.03 60.03 0 0 1 42.361-102.459 60.098 60.098 0 0 1 56.58 80.169l10.588 20.013A78.29 78.29 0 0 0 115.708 26a78.233 78.233 0 0 0-5.635 156.262L99.428 162.02a59.688 59.688 0 0 1-26.16-15.346z" fill="#d4af37" fill-opacity="1" transform="translate(435.2, 435.2) scale(-0.7, -0.7) rotate(180, 256, 256) skewX(0) skewY(0)" filter="url(#shadow-1)"></path></g></svg>