<svg xmlns="http://www.w3.org/2000/svg" viewBox="0 0 512 512" style="height: 512px; width: 512px;"><defs><filter id="shadow-1" height="300%" width="300%" x="-100%" y="-100%"><feFlood flood-color="rgba(221, 180, 69, 1)" result="flood"></feFlood><feComposite in="flood" in2="SourceGraphic" operator="atop" result="composite"></feComposite><feGaussianBlur in="composite" stdDeviation="15" result="blur"></feGaussianBlur><feOffset dx="0" dy="0" result="offset"></feOffset><feComposite in="SourceGraphic" in2="offset" operator="over"></feComposite></filter></defs><path d="M0 0h512v512H0z" fill="#000000" fill-opacity="0.01"></path><g class="" transform="translate(1,-1)" style=""><path d="M373.47 25.5c-33.475-.064-67.614 13.444-94.44 43.156l37.22 145.156-33.437.032 35.343 132.093-116.718-188.375 50.03 5.375L202.5 47.312C120.437-1.43 4.756 40.396 8.5 158.156c4.402 138.44 191.196 184.6 247.406 331.625 59.376-147.035 251.26-184.33 246.656-331.624-2.564-82.042-64.6-132.532-129.093-132.656z" fill="#d4af37" fill-opacity="1" transform="translate(76.8, 435.2) scale(0.7, -0.7) rotate(180, 256, 256) skewX(0) skewY(0)" filter="url(#shadow-1)"></path></g></svg>